General
Complete name                    : Orphan.mkv
Format                           : Matroska
File size                        : 2.21 GiB
Duration                         : 1h 57mn
Overall bit rate                 : 2 687 Kbps
Writing application              : HandBrake 0.9.4

Video
ID                               : 1
Format                           : AVC
Duration                         : 1h 57mn
Bit rate                         : 1 481 Kbps
Width                            : 720 pixels
Height                           : 576 pixels
Display aspect ratio             : 16:9
Resolution                       : 8 bits
Colorimetry                      : 4:2:0
Scan type                        : Progressive
Bits/(Pixel*Frame)               : 0.143
Stream size                      : 1.22 GiB (55%)
Writing library                  : x264 core 79


Audio #1
ID                               : 2
Format                           : AC-3
Duration                         : 1h 57mn
Bit rate                         : 384 Kbps
Channel(s)                       : 6 channels
Channel positions                : Front: L C R, Side: L R, LFE
Sampling rate                    : 48.0 KHz
Stream size                      : 324 MiB (14%)
Language                         : English

Audio #2
ID                               : 3
Format                           : AC-3
Duration                         : 1h 57mnt
Bit rate                         : 384 Kbps
Channel(s)                       : 6 channels
Channel positions                : Front: L C R, Side: L R, LFE
Sampling rate                    : 48.0 KHz
Stream size                      : 324 MiB (14%)
Language                         : French

Audio #3
ID                               : 4
Format                           : AC-3
Duration                         : 1h 57mn
Bit rate                         : 384 Kbps
Channel(s)                       : 6 channels
Channel positions                : Front: L C R, Side: L R, LFE
Sampling rate                    : 48.0 KHz
Stream size                      : 324 MiB (14%)
Language                         : Spanish

Text #1
ID                               : 5
Language                         : English

Text #2
ID                               : 6
Language                         : Danish

Text #3
ID                               : 7
Language                         : Dutch

Text #4
ID                               : 8
Language                         : Finnish

Text #5
ID                               : 9
Language                         : French

Text #6
ID                               : 10
Language                         : Norwegian

Text #7
ID                               : 11
Language                         : Portuguese

Text #8
ID                               : 12
Language                         : Spanish

Text #9
ID                               : 13
Language                         : Swedish

Menu
00:00:00.000                     : Chapter 1
00:04:02.760                     : Chapter 2

